<svg width="21" height="21" viewBox="0 0 21 21" fill="none" xmlns="http://www.w3.org/2000/svg">
<path d="M10.54 0.916008C5.08005 0.916008 0.630049 5.36601 0.630049 10.826C0.630049 12.576 1.09005 14.276 1.95005 15.776L0.550049 20.916L5.80005 19.536C7.25005 20.326 8.88005 20.746 10.54 20.746C16 20.746 20.4501 16.296 20.4501 10.836C20.4501 8.18601 19.42 5.69601 17.55 3.82601C16.6331 2.90011 15.5411 2.16597 14.3376 1.66637C13.134 1.16677 11.8431 0.911691 10.54 0.916008ZM10.55 2.58601C12.75 2.58601 14.81 3.44601 16.37 5.00601C17.1354 5.77153 17.7423 6.68052 18.1558 7.68093C18.5694 8.68133 18.7815 9.7535 18.7801 10.836C18.7801 15.376 15.08 19.066 10.54 19.066C9.06005 19.066 7.61005 18.676 6.35005 17.916L6.05005 17.746L2.93005 18.566L3.76005 15.526L3.56005 15.206C2.7346 13.8944 2.29772 12.3757 2.30005 10.826C2.31005 6.28601 6.00005 2.58601 10.55 2.58601ZM7.03005 6.24601C6.87005 6.24601 6.60005 6.30601 6.37005 6.55601C6.15005 6.80601 5.50005 7.41601 5.50005 8.62601C5.50005 9.84601 6.39005 11.016 6.50005 11.186C6.64005 11.356 8.26005 13.856 10.75 14.916C11.34 15.186 11.8 15.336 12.16 15.446C12.75 15.636 13.29 15.606 13.72 15.546C14.2 15.476 15.18 14.946 15.39 14.366C15.6 13.786 15.6 13.296 15.54 13.186C15.47 13.086 15.31 13.026 15.06 12.916C14.81 12.776 13.59 12.176 13.37 12.096C13.14 12.016 13 11.976 12.81 12.216C12.65 12.466 12.17 13.026 12.03 13.186C11.88 13.356 11.74 13.376 11.5 13.256C11.24 13.126 10.44 12.866 9.50005 12.026C8.76005 11.366 8.27005 10.556 8.12005 10.306C8.00005 10.066 8.11005 9.91601 8.23005 9.80601C8.34005 9.69601 8.50005 9.51601 8.60005 9.36601C8.73005 9.22601 8.77005 9.11601 8.85005 8.95601C8.93005 8.78601 8.89005 8.64601 8.83005 8.52601C8.77005 8.41601 8.27005 7.17601 8.06005 6.68601C7.86005 6.20601 7.66005 6.26601 7.50005 6.25601C7.36005 6.25601 7.20005 6.24601 7.03005 6.24601Z" fill="white"/>
</svg>
